PathFileType	4	(X/Y/Z)	Walk3.trc
DataRate	CameraRate	NumFrames	NumMarkers	Units	OrigDataRate	OrigDataStartFrame	OrigNumFrames
200.000000	200.000000	4	68	mm	200.000000	857	1063
Frame#	Times		LFHD		LowerBodyModelVer		RFHD		RACR1		RCAR		LElbow		RWRU		RUA1		LACR1		LLFC		RASI		RFA1		LUA1		LTH3		LTB1		RTH2		LMT1		LMT5		RTH4		LTB4		LTH4		LTB3		LToe		RLFC		CLAV		STRN		LTH2		LLMAL		LASI		LTH1		PELOrigin		RTH3		LWRU		RElbow		RBack		LFA1		LPSI		RMT1		RMT5		LBHD		RPSI		LHJC		MidPelvis		OPelvis		RHJC		SACR		XPelvis		YPelvis		ZPelvis		RCAL		LCAR		C7		RToe		RLMAL		RBHD		RTB2		RTB3		RTH1		LWRR		RTB1		RTB4		RMMAL		LTB2		RElbowM		T10		RWRR		LMMAL		LCAL
			X1	Y1	Z1	X2	Y2	Z2	X3	Y3	Z3	X4	Y4	Z4	X5	Y5	Z5	X6	Y6	Z6	X7	Y7	Z7	X8	Y8	Z8	X9	Y9	Z9	X10	Y10	Z10	X11	Y11	Z11	X12	Y12	Z12	X13	Y13	Z13	X14	Y14	Z14	X15	Y15	Z15	X16	Y16	Z16	X17	Y17	Z17	X18	Y18	Z18	X19	Y19	Z19	X20	Y20	Z20	X21	Y21	Z21	X22	Y22	Z22	X23	Y23	Z23	X24	Y24	Z24	X25	Y25	Z25	X26	Y26	Z26	X27	Y27	Z27	X28	Y28	Z28	X29	Y29	Z29	X30	Y30	Z30	X31	Y31	Z31	X32	Y32	Z32	X33	Y33	Z33	X34	Y34	Z34	X35	Y35	Z35	X36	Y36	Z36	X37	Y37	Z37	X38	Y38	Z38	X39	Y39	Z39	X40	Y40	Z40	X41	Y41	Z41	X42	Y42	Z42	X43	Y43	Z43	X44	Y44	Z44	X45	Y45	Z45	X46	Y46	Z46	X47	Y47	Z47	X48	Y48	Z48	X49	Y49	Z49	X50	Y50	Z50	X51	Y51	Z51	X52	Y52	Z52	X53	Y53	Z53	X54	Y54	Z54	X55	Y55	Z55	X56	Y56	Z56	X57	Y57	Z57	X58	Y58	Z58	X59	Y59	Z59	X60	Y60	Z60	X61	Y61	Z61	X62	Y62	Z62	X63	Y63	Z63	X64	Y64	Z64	X65	Y65	Z65	X66	Y66	Z66	X67	Y67	Z67	X68	Y68	Z68

857	4.285	111	1559.8	-41.029	9	2014	4	113.11	1556.5	56.716	-14.686	1348.1	180.18	-45.038	747.98	328.96	34.355	1043.6	-301.84	-82.06	805.42	343.53	-59.69	1205.1	265.82	2.0396	1330.2	-179.47	-127.86	487.93	-149.68	90.11	936.51	179.03	-53.863	910.04	315.54	32.022	1188.2	-254.62	-76.031	548.6	-164.5	-158.99	329.33	-50.251	137.71	636.38	181.65	-208.8	37.059	-32.797	-228.14	24.305	-119.42	83.182	620.41	202.21	-204.11	256.4	-56.525	-43.593	623.9	-194.74	-241.63	179.49	-61.326	-167.86	29.012	-31.347	126.02	451.79	168.83	65.121	1311.9	1.665	130.49	1195.9	7.4399	7.8286	611.52	-166	-320.97	106.44	-119.89	68.353	939.93	-184.33	-7.6888	696.06	-223.68	79.231	938.22	-2.6491	101.62	538.33	183.41	200.91	862.43	-318.95	-108.07	1042.6	299.15	-152.99	1285.2	102.67	147.66	969.49	-295.18	-163.22	953.11	-75.908	327.54	43.377	68.233	319.65	33.904	156.66	-39.245	1533.2	-66.671	-164.68	945.91	55.154	-17.251	826.86	-121.91	-42.36	943.86	-6.5131	79.231	938.22	-2.6491	-2.4565	824.53	125.17	-163.95	949.51	-10.377	159	934.56	-7.4602	82.927	1018.1	-2.118	84.013	937.46	77.204	143.34	24.563	114.75	255.83	843.96	-300.51	-97.478	1387.7	6.6351	368.28	47.463	71.645	193.83	64.878	157.18	-56.638	1538.9	68.167	192.36	277.04	153.35	216.03	188.18	97.936	73.579	701.87	225.27	221.47	882.04	-249.42	202.47	358.81	86.417	209.25	273.5	92.176	208.98	73.8	70.919	-203.78	262.16	-118.65	-137.76	1029.2	212.55	-143.58	1056.5	-1.1337	-39.279	803.96	281.7	-308.37	110.48	-35.695	-385.67	88.274	-78.143
858	4.29	115.76	1560.6	-39.433	9	2014	4	117.95	1557.3	58.31	-9.4589	1348.2	181.88	-38.371	747.85	329.77	38.146	1044.3	-300.47	-75.57	805.15	344.33	-53.904	1204.9	267.18	7.263	1331.2	-177.88	-122.19	488.21	-149.81	95.688	936.95	179.89	-47.575	909.85	316.45	36.142	1189	-253.37	-70.351	548.87	-164.47	-154.61	329.56	-50.57	143.09	637.31	181.94	-208.48	37.138	-32.984	-228.11	24.281	-119.38	88.457	621.59	202.44	-200.41	257.11	-56.974	-38.026	624.29	-194.52	-238.87	180.66	-61.841	-167.96	29	-31.451	131.17	452.69	169.19	70.288	1312.6	3.3525	135.83	1196.6	9.1417	13.383	611.96	-165.73	-319.15	108.56	-120.41	74.015	940.76	-183.48	-2.2351	696.57	-223.36	84.852	938.85	-1.7967	106.7	539.35	183.76	204.73	863.05	-317.25	-101.97	1042.3	300.22	-147.75	1285.5	104.34	151.55	970.26	-293.68	-157.7	953.62	-75.324	328.17	41.657	68.254	320.21	32.679	157.14	-34.471	1533.8	-64.949	-159.2	946.66	55.708	-11.595	827.61	-121.21	-36.799	944.5	-5.8023	84.852	938.85	-1.7967	3.1429	825.02	125.88	-158.45	950.14	-9.8079	164.62	935.21	-6.593	88.539	1018.8	-1.1797	89.615	938.02	78.057	143.58	25.048	114.8	259.69	844.66	-298.8	-92.326	1388.2	8.4637	369.09	45	71.623	194.59	64.949	157.34	-51.77	1539.5	69.908	195.88	277.04	153.32	218.02	187.89	97.753	79.404	702.94	225.35	225.37	882.93	-247.82	206.31	358.64	86.268	212.17	273.26	92.01	209.68	73.582	70.937	-200.1	262.97	-119.1	-131.76	1029	213.65	-138.18	1057	-0.45777	-32.755	803.81	282.51	-306.24	112.49	-36.255	-383.87	91.68	-78.402
859	4.295	120.53	1561.5	-37.834	9	2014	4	122.81	1558.3	59.908	-4.2275	1348.4	183.58	-31.652	747.83	330.59	41.863	1045.1	-299.08	-69.039	804.99	345.13	-48.117	1204.8	268.54	12.534	1332.3	-176.27	-116.31	488.51	-150.01	101.28	937.55	180.74	-41.264	909.77	317.36	40.242	1189.9	-252.11	-64.496	549.17	-164.49	-150.03	329.8	-50.954	148.42	638.32	182.24	-208.14	37.22	-33.167	-228.07	24.264	-119.33	93.692	622.85	202.71	-196.5	257.85	-57.485	-32.314	624.74	-194.34	-235.9	181.88	-62.414	-168.08	28.984	-31.557	136.22	453.57	169.56	75.467	1313.5	5.0493	141.18	1197.5	10.901	19.077	612.49	-165.46	-317.18	110.77	-120.95	79.672	941.7	-182.59	3.3271	697.15	-223.04	90.477	939.62	-0.923	111.73	540.42	184.16	208.38	863.66	-315.6	-95.888	1042.1	301.27	-142.49	1285.8	105.98	155.33	971.06	-292.21	-152.13	954.23	-74.803	328.71	40.145	68.27	320.72	31.65	157.61	-29.684	1534.4	-63.213	-153.71	947.51	56.206	-5.9122	828.48	-120.45	-31.223	945.24	-5.1107	90.477	939.62	-0.923	8.7836	825.66	126.62	-152.92	950.87	-9.2985	170.25	936	-5.7095	94.145	1019.5	-0.22701	95.227	938.71	78.931	143.79	25.481	114.86	263.36	845.3	-297.16	-87.145	1388.8	10.288	369.8	42.795	71.616	195.28	65.034	157.47	-46.878	1540.2	71.662	199.25	277.04	153.32	219.88	187.63	97.573	85.188	704.09	225.42	229.15	883.82	-246.29	210.03	358.47	86.184	214.95	273.05	91.879	210.27	73.412	70.955	-196.23	263.81	-119.62	-125.73	1028.8	214.71	-132.76	1057.6	0.2272	-26.18	803.79	283.33	-303.93	114.58	-36.842	-381.87	95.246	-78.654
860	4.3	125.32	1562.4	-36.233	9	2014	4	127.7	1559.3	61.507	1.0049	1348.8	185.26	-24.883	747.93	331.39	45.511	1046	-297.67	-62.469	804.93	345.9	-42.334	1204.7	269.9	17.846	1333.5	-174.64	-110.23	488.81	-150.28	106.89	938.28	181.59	-34.935	909.8	318.26	44.33	1190.9	-250.85	-58.461	549.51	-164.58	-145.23	330.05	-51.412	153.68	639.37	182.55	-207.79	37.304	-33.341	-228.02	24.257	-119.27	98.887	624.15	203.04	-192.39	258.61	-58.063	-26.457	625.25	-194.18	-232.72	183.13	-63.046	-168.22	28.963	-31.661	141.13	454.43	169.93	80.655	1314.4	6.7512	146.54	1198.4	12.715	24.914	613.1	-165.22	-315.05	113.07	-121.5	85.323	942.76	-181.65	8.9958	697.82	-222.71	96.109	940.52	-0.029556	116.72	541.54	184.6	211.85	864.25	-313.99	-89.811	1042	302.31	-137.2	1286.2	107.6	159.01	971.87	-290.78	-146.52	954.92	-74.345	329.17	38.836	68.274	321.16	30.8	158.06	-24.885	1535.1	-61.466	-148.23	948.44	56.649	-0.20061	829.48	-119.63	-25.634	946.1	-4.4389	96.109	940.52	-0.029556	14.468	826.44	127.37	-147.38	951.68	-8.8482	175.89	936.94	-4.8115	99.744	1020.4	0.73879	100.85	939.54	79.824	143.99	25.863	114.92	266.86	845.88	-295.6	-81.943	1389.5	12.105	370.43	40.847	71.618	195.9	65.127	157.59	-41.961	1541	73.428	202.45	277.02	153.35	221.6	187.39	97.398	90.928	705.29	225.5	232.81	884.69	-244.83	213.63	358.31	86.166	217.61	272.85	91.782	210.75	73.28	70.967	-192.16	264.66	-120.2	-119.69	1028.8	215.75	-127.31	1058.3	0.92131	-19.556	803.88	284.13	-301.42	116.75	-37.453	-379.64	98.972	-78.901
